<svg xmlns="http://www.w3.org/2000/svg" viewBox="0 0 120 120" fill="none">
  <!-- Outer Cube Outlines in Purple -->
  <g stroke="#7e22ce" stroke-width="6.5" stroke-linecap="round" stroke-linejoin="round">
    <!-- Top Face -->
    <path d="M60 12 L102 34 L60 56 L18 34 Z" />
    
    <!-- Left Face Border -->
    <path d="M18 34 L18 84 L60 106 L60 56" />
    
    <!-- Right Face Border -->
    <path d="M102 34 L102 84 L60 106" />
  </g>

  <!-- Left Face 'B' (Perspective Skewed) -->
  <g transform="translate(23, 44) skewY(26.5) scale(0.72, 0.78)" fill="#7e22ce">
    <path d="M6 8 H20 C26 8 30 11 30 16 C30 20 27 23 23 24.5 C28.5 26 32 29.5 32 35 C32 41.5 27 46 20 46 H6 V8 Z M13 15 V22 H19 C22 22 24 20.5 24 18.5 C24 16.5 22 15 19 15 H13 Z M13 29 V39 H20 C23.5 39 25.5 37 25.5 34 C25.5 31 23.5 29 20 29 H13 Z" />
  </g>

  <!-- Right Face 'B' (Perspective Skewed) -->
  <g transform="translate(68, 59) skewY(-26.5) scale(0.72, 0.78)" fill="#7e22ce">
    <path d="M6 8 H20 C26 8 30 11 30 16 C30 20 27 23 23 24.5 C28.5 26 32 29.5 32 35 C32 41.5 27 46 20 46 H6 V8 Z M13 15 V22 H19 C22 22 24 20.5 24 18.5 C24 16.5 22 15 19 15 H13 Z M13 29 V39 H20 C23.5 39 25.5 37 25.5 34 C25.5 31 23.5 29 20 29 H13 Z" />
  </g>
</svg>
